<svg width="104" height="104" viewBox="0 0 104 104" fill="none" xmlns="http://www.w3.org/2000/svg">
<path fill-rule="evenodd" clip-rule="evenodd" d="M55.8836 81.5877V90.171H64.4669V86.8054C62.6247 85.4149 61.0929 83.6348 59.9942 81.5877H55.8836ZM47.3003 60.1294V81.5877H55.8836V60.1294H66.2107C68.2526 58.9708 70.5748 58.2489 73.0503 58.0905V51.546H81.6336V59.9483C85.1163 61.8175 87.8261 64.94 89.1595 68.7127H90.2169V51.546H81.6336V42.9627H73.0503V51.546H55.8836V42.9627H30.1336V51.546H21.5503V42.9627H12.9669V51.546H21.5503V60.1294H30.1336V51.546H38.7169V60.1294H47.3003ZM47.3003 60.1294V51.546H55.8836V60.1294H47.3003ZM60.1753 21.5044H51.5919V12.921H60.1753V21.5044ZM51.5919 21.5044H43.0086V38.671H60.1753V30.0877H51.5919V21.5044ZM19.4044 32.2335V19.3585H32.2794V32.2335H19.4044ZM12.9669 38.671H38.7169V12.921H12.9669V38.671ZM19.4044 83.7335V70.8585H32.2794V83.7335H19.4044ZM12.9669 90.171H38.7169V64.421H12.9669V90.171ZM70.9044 32.2335V19.3585H83.7794V32.2335H70.9044ZM64.4669 38.671H90.2169V12.921H64.4669V38.671ZM22.6232 22.5773H29.0607V29.0148H22.6232V22.5773ZM22.6232 74.0773H29.0607V80.5148H22.6232V74.0773ZM74.1232 22.5773H80.5607V29.0148H74.1232V22.5773Z" fill="black"/>
<rect x="58.6035" y="58.5575" width="30.9655" height="30.9655" rx="15.4828" fill="white" stroke="black"/>
<g clip-path="url(#clip0_65_1277)">
<path d="M80.647 75.9147V68.4166C80.647 67.3856 79.8035 66.5421 78.7725 66.5421H65.6509C64.6199 66.5421 63.7763 67.3856 63.7763 68.4166V75.9147C63.7763 76.9457 64.6199 77.7892 65.6509 77.7892H78.7725C79.8035 77.7892 80.647 76.9457 80.647 75.9147ZM78.7725 75.9147H65.6509V68.4166H78.7725V75.9147ZM72.2117 69.3539C70.6558 69.3539 69.3999 70.6098 69.3999 72.1657C69.3999 73.7215 70.6558 74.9775 72.2117 74.9775C73.7675 74.9775 75.0235 73.7215 75.0235 72.1657C75.0235 70.6098 73.7675 69.3539 72.2117 69.3539ZM84.3961 69.3539V79.6638C84.3961 80.6947 83.5525 81.5383 82.5215 81.5383H66.5881C66.5881 80.601 66.5881 80.6947 66.5881 79.6638H82.5215V69.3539C83.5525 69.3539 83.4588 69.3539 84.3961 69.3539Z" fill="black"/>
</g>
<defs>
<clipPath id="clip0_65_1277">
<rect width="22.4943" height="22.4943" fill="white" transform="translate(62.8391 62.7931)"/>
</clipPath>
</defs>
</svg>
