<svg width="104" height="104" viewBox="0 0 104 104" fill="none" xmlns="http://www.w3.org/2000/svg">
<path fill-rule="evenodd" clip-rule="evenodd" d="M55.8836 82.3693V90.9526H64.4669V87.587C62.6247 86.1965 61.0929 84.4165 59.9942 82.3693H55.8836ZM47.3003 60.911V82.3693H55.8836V60.911H66.2107C68.2526 59.7524 70.5748 59.0305 73.0503 58.8722V52.3276H81.6336V60.7299C85.1163 62.5991 87.8261 65.7216 89.1595 69.4943H90.2169V52.3276H81.6336V43.7443H73.0503V52.3276H55.8836V43.7443H30.1336V52.3276H21.5503V43.7443H12.9669V52.3276H21.5503V60.911H30.1336V52.3276H38.7169V60.911H47.3003ZM47.3003 60.911V52.3276H55.8836V60.911H47.3003ZM60.1753 22.286H51.5919V13.7026H60.1753V22.286ZM51.5919 22.286H43.0086V39.4526H60.1753V30.8693H51.5919V22.286ZM19.4044 33.0151V20.1401H32.2794V33.0151H19.4044ZM12.9669 39.4526H38.7169V13.7026H12.9669V39.4526ZM19.4044 84.5151V71.6401H32.2794V84.5151H19.4044ZM12.9669 90.9526H38.7169V65.2026H12.9669V90.9526ZM70.9044 33.0151V20.1401H83.7794V33.0151H70.9044ZM64.4669 39.4526H90.2169V13.7026H64.4669V39.4526ZM22.6232 23.3589H29.0607V29.7964H22.6232V23.3589ZM22.6232 74.8589H29.0607V81.2964H22.6232V74.8589ZM74.1232 23.3589H80.5607V29.7964H74.1232V23.3589Z" fill="black"/>
<rect x="58.6035" y="59.3391" width="30.9655" height="30.9655" rx="15.4828" fill="white" stroke="black"/>
<g clip-path="url(#clip0_65_1285)">
<path d="M69.7842 76.1433L68.4627 74.8218L64.7136 78.5708L68.4627 82.3199L69.7842 80.9983L68.3033 79.5081H82.5216V77.6336H68.3033L69.7842 76.1433Z" fill="black"/>
<path d="M78.3882 73.5003L79.7098 74.8218L83.4588 71.0728L79.7098 67.3237L78.3882 68.6453L79.8691 70.1355H65.6509V72.01H79.8691L78.3882 73.5003Z" fill="black"/>
</g>
<defs>
<clipPath id="clip0_65_1285">
<rect width="22.4943" height="22.4943" fill="white" transform="translate(62.8391 63.5747)"/>
</clipPath>
</defs>
</svg>
