<svg width="20" height="18" viewBox="0 0 20 18" fill="none" xmlns="http://www.w3.org/2000/svg">
<path fill-rule="evenodd" clip-rule="evenodd" d="M3.125 3.85714H18.0156C19.1102 3.85714 20 4.72219 20 5.78571V16.0714C20 17.135 19.1102 18 18.0156 18H2.5C1.11914 18 0 16.8489 0 15.4286V2.57143C0 1.15112 1.11914 0 2.5 0H16.875C17.9105 0 18.75 0.863438 18.75 1.92857C18.75 2.28375 18.4703 2.57143 18.125 2.57143H3.125C2.77969 2.57143 2.5 2.85911 2.5 3.21429C2.5 3.56946 2.77969 3.85714 3.125 3.85714ZM10.5714 11.5714H14V10.4286H10.5714V7H9.42857V10.4286H6V11.5714H9.42857V15H10.5714V11.5714Z" fill="white"/>
</svg>
