<svg width="20" height="18" viewBox="0 0 20 18" fill="none" xmlns="http://www.w3.org/2000/svg">
<path fill-rule="evenodd" clip-rule="evenodd" d="M18.0156 3.85714H3.125C2.77969 3.85714 2.5 3.56946 2.5 3.21429C2.5 2.85911 2.77969 2.57143 3.125 2.57143H18.125C18.4703 2.57143 18.75 2.28375 18.75 1.92857C18.75 0.863438 17.9105 0 16.875 0H2.5C1.11914 0 0 1.15112 0 2.57143V15.4286C0 16.8489 1.11914 18 2.5 18H18.0156C19.1102 18 20 17.135 20 16.0714V5.78571C20 4.72219 19.1102 3.85714 18.0156 3.85714ZM6 11H14V9H6V11Z" fill="white"/>
</svg>
